# xmcd CD database file
#
# Track frame offsets:
#	150
#	16859
#	42556
#	76526
#	96101
#	113982
#	147959
#	175323
#
# Disc length: 2646 seconds
#
# Revision: 0
# Processed by: cddbd v1.4PL0 Copyright (c) Steve Scherf et al.
# Submitted via: CDex 1.50Beta7
#
DISCID=5d0a5408
DTITLE=KmKlubas - MEKAnikal_cd
DYEAR=2002
DGENRE=New Age
TTITLE0=digital xaos :: alpha star
TTITLE1=virusj :: in abeyance dark mix
TTITLE2=digital xaos :: aeternus cura
TTITLE3=titas petrikis :: klajoklis
TTITLE4=digital xaos :: broken aparat (digital xaos mix)
TTITLE5=titas petrikis :: 1001 segmentas
TTITLE6=virusj :: psychopath
TTITLE7=virusj :: stepney
EXTD=YEAR: 2002
EXTT0=
EXTT1=
EXTT2=
EXTT3=
EXTT4=
EXTT5=
EXTT6=
EXTT7=
PLAYORDER=
